# xmcd CD database file
#
# Track frame offsets:
#	150
#	23655
#	41450
#
# Disc length: 864 seconds
#
# Revision: 1
# Processed by: cddbd v1.5.2PL0 Copyright (c) Steve Scherf et al.
# Submitted via: CDex 1.70beta2
#
DISCID=17035e03
DTITLE=秋川雅史 - 千の風になって
DYEAR=2006
DGENRE=JPop
TTITLE0=千の風になって
TTITLE1=千の風になって～カラオケ～
TTITLE2=リンゴ追分
EXTD=YEAR: 2006
EXTT0=
EXTT1=
EXTT2=
PLAYORDER=
